<svg id="visual" viewBox="0 0 900 600" width="900" height="600" xmlns="http://www.w3.org/2000/svg" xmlns:xlink="http://www.w3.org/1999/xlink" version="1.1"><rect width="900" height="600" fill="#ffffff"></rect><g><g transform="translate(747 120)"><path d="M124.8 -146.8C162.6 -117 194.6 -78.5 199.8 -37C205 4.5 183.5 49 158.1 89.7C132.7 130.5 103.6 167.5 65 183.7C26.4 200 -21.6 195.5 -65.7 179.8C-109.9 164 -150.2 137 -171.4 99.4C-192.6 61.8 -194.6 13.5 -185.3 -31.5C-175.9 -76.6 -155.2 -118.5 -122.5 -149.1C-89.7 -179.7 -44.8 -199.1 -0.7 -198.3C43.5 -197.5 87 -176.5 124.8 -146.8Z" fill="#DDEEF7"></path></g></g></svg>